<svg width="193" height="59" viewBox="0 0 193 59" fill="none" xmlns="http://www.w3.org/2000/svg">
<path d="M2.19727 0.525391H10.7812C12.4805 0.525391 13.7451 0.598633 14.5752 0.745117C15.415 0.881836 16.1621 1.1748 16.8164 1.62402C17.4805 2.07324 18.0322 2.67383 18.4717 3.42578C18.9111 4.16797 19.1309 5.00293 19.1309 5.93066C19.1309 6.93652 18.8574 7.85938 18.3105 8.69922C17.7734 9.53906 17.041 10.1689 16.1133 10.5889C17.4219 10.9697 18.4277 11.6191 19.1309 12.5371C19.834 13.4551 20.1855 14.5342 20.1855 15.7744C20.1855 16.751 19.9561 17.7031 19.4971 18.6309C19.0479 19.5488 18.4277 20.2861 17.6367 20.8428C16.8555 21.3896 15.8887 21.7266 14.7363 21.8535C14.0137 21.9316 12.2705 21.9805 9.50684 22H2.19727V0.525391ZM6.5332 4.09961V9.06543H9.375C11.0645 9.06543 12.1143 9.04102 12.5244 8.99219C13.2666 8.9043 13.8477 8.65039 14.2676 8.23047C14.6973 7.80078 14.9121 7.23926 14.9121 6.5459C14.9121 5.88184 14.7266 5.34473 14.3555 4.93457C13.9941 4.51465 13.4521 4.26074 12.7295 4.17285C12.2998 4.12402 11.0645 4.09961 9.02344 4.09961H6.5332ZM6.5332 12.6396V18.3818H10.5469C12.1094 18.3818 13.1006 18.3379 13.5205 18.25C14.165 18.1328 14.6875 17.8496 15.0879 17.4004C15.498 16.9414 15.7031 16.3311 15.7031 15.5693C15.7031 14.9248 15.5469 14.3779 15.2344 13.9287C14.9219 13.4795 14.4678 13.1523 13.8721 12.9473C13.2861 12.7422 12.0068 12.6396 10.0342 12.6396H6.5332ZM34.0723 22V19.6709C33.5059 20.501 32.7588 21.1553 31.8311 21.6338C30.9131 22.1123 29.9414 22.3516 28.916 22.3516C27.8711 22.3516 26.9336 22.1221 26.1035 21.6631C25.2734 21.2041 24.6729 20.5596 24.3018 19.7295C23.9307 18.8994 23.7451 17.752 23.7451 16.2871V6.44336H27.8613V13.5918C27.8613 15.7793 27.9346 17.1221 28.0811 17.6201C28.2373 18.1084 28.5156 18.499 28.916 18.792C29.3164 19.0752 29.8242 19.2168 30.4395 19.2168C31.1426 19.2168 31.7725 19.0264 32.3291 18.6455C32.8857 18.2549 33.2666 17.7764 33.4717 17.21C33.6768 16.6338 33.7793 15.2324 33.7793 13.0059V6.44336H37.8955V22H34.0723ZM46.1133 22H41.9971V6.44336H45.8203V8.65527C46.4746 7.61035 47.0605 6.92188 47.5781 6.58984C48.1055 6.25781 48.7012 6.0918 49.3652 6.0918C50.3027 6.0918 51.2061 6.35059 52.0752 6.86816L50.8008 10.457C50.1074 10.0078 49.4629 9.7832 48.8672 9.7832C48.291 9.7832 47.8027 9.94434 47.4023 10.2666C47.002 10.5791 46.6846 11.1504 46.4502 11.9805C46.2256 12.8105 46.1133 14.5488 46.1133 17.1953V22ZM62.8711 17.0488L66.9727 17.7373C66.4453 19.2412 65.6104 20.3887 64.4678 21.1797C63.335 21.9609 61.9141 22.3516 60.2051 22.3516C57.5 22.3516 55.498 21.4678 54.1992 19.7002C53.1738 18.2842 52.6611 16.4971 52.6611 14.3389C52.6611 11.7607 53.335 9.74414 54.6826 8.28906C56.0303 6.82422 57.7344 6.0918 59.7949 6.0918C62.1094 6.0918 63.9355 6.8584 65.2734 8.3916C66.6113 9.91504 67.251 12.2539 67.1924 15.4082H56.8799C56.9092 16.6289 57.2412 17.5811 57.876 18.2646C58.5107 18.9385 59.3018 19.2754 60.249 19.2754C60.8936 19.2754 61.4355 19.0996 61.875 18.748C62.3145 18.3965 62.6465 17.8301 62.8711 17.0488ZM63.1055 12.8887C63.0762 11.6973 62.7686 10.7939 62.1826 10.1787C61.5967 9.55371 60.8838 9.24121 60.0439 9.24121C59.1455 9.24121 58.4033 9.56836 57.8174 10.2227C57.2314 10.877 56.9434 11.7656 56.9531 12.8887H63.1055ZM73.6377 11.1895L69.9023 10.5156C70.3223 9.01172 71.0449 7.89844 72.0703 7.17578C73.0957 6.45313 74.6191 6.0918 76.6406 6.0918C78.4766 6.0918 79.8438 6.31152 80.7422 6.75098C81.6406 7.18066 82.2705 7.73242 82.6318 8.40625C83.0029 9.07031 83.1885 10.2959 83.1885 12.083L83.1445 16.8877C83.1445 18.2549 83.208 19.2656 83.335 19.9199C83.4717 20.5645 83.7207 21.2578 84.082 22H80.0098C79.9023 21.7266 79.7705 21.3213 79.6143 20.7842C79.5459 20.54 79.4971 20.3789 79.4678 20.3008C78.7646 20.9844 78.0127 21.4971 77.2119 21.8389C76.4111 22.1807 75.5566 22.3516 74.6484 22.3516C73.0469 22.3516 71.7822 21.917 70.8545 21.0479C69.9365 20.1787 69.4775 19.0801 69.4775 17.752C69.4775 16.873 69.6875 16.0918 70.1074 15.4082C70.5273 14.7148 71.1133 14.1875 71.8652 13.8262C72.627 13.4551 73.7207 13.1328 75.1465 12.8594C77.0703 12.498 78.4033 12.1611 79.1455 11.8486V11.4385C79.1455 10.6475 78.9502 10.0859 78.5596 9.75391C78.1689 9.41211 77.4316 9.24121 76.3477 9.24121C75.6152 9.24121 75.0439 9.3877 74.6338 9.68066C74.2236 9.96387 73.8916 10.4668 73.6377 11.1895ZM79.1455 14.5293C78.6182 14.7051 77.7832 14.915 76.6406 15.1592C75.498 15.4033 74.751 15.6426 74.3994 15.877C73.8623 16.2578 73.5938 16.7412 73.5938 17.3271C73.5938 17.9033 73.8086 18.4014 74.2383 18.8213C74.668 19.2412 75.2148 19.4512 75.8789 19.4512C76.6211 19.4512 77.3291 19.207 78.0029 18.7188C78.501 18.3477 78.8281 17.8936 78.9844 17.3564C79.0918 17.0049 79.1455 16.3359 79.1455 15.3496V14.5293ZM97.5 22V19.6709C96.9336 20.501 96.1865 21.1553 95.2588 21.6338C94.3408 22.1123 93.3691 22.3516 92.3438 22.3516C91.2988 22.3516 90.3613 22.1221 89.5312 21.6631C88.7012 21.2041 88.1006 20.5596 87.7295 19.7295C87.3584 18.8994 87.1729 17.752 87.1729 16.2871V6.44336H91.2891V13.5918C91.2891 15.7793 91.3623 17.1221 91.5088 17.6201C91.665 18.1084 91.9434 18.499 92.3438 18.792C92.7441 19.0752 93.252 19.2168 93.8672 19.2168C94.5703 19.2168 95.2002 19.0264 95.7568 18.6455C96.3135 18.2549 96.6943 17.7764 96.8994 17.21C97.1045 16.6338 97.207 15.2324 97.207 13.0059V6.44336H101.323V22H97.5ZM112.998 14.002C112.998 12.6348 113.335 11.3115 114.009 10.0322C114.683 8.75293 115.635 7.77637 116.865 7.10254C118.105 6.42871 119.487 6.0918 121.011 6.0918C123.364 6.0918 125.293 6.8584 126.797 8.3916C128.301 9.91504 129.053 11.8438 129.053 14.1777C129.053 16.5312 128.291 18.4844 126.768 20.0371C125.254 21.5801 123.345 22.3516 121.04 22.3516C119.614 22.3516 118.252 22.0293 116.953 21.3848C115.664 20.7402 114.683 19.7979 114.009 18.5576C113.335 17.3076 112.998 15.7891 112.998 14.002ZM117.217 14.2217C117.217 15.7646 117.583 16.9463 118.315 17.7666C119.048 18.5869 119.951 18.9971 121.025 18.9971C122.1 18.9971 122.998 18.5869 123.721 17.7666C124.453 16.9463 124.819 15.7549 124.819 14.1924C124.819 12.6689 124.453 11.4971 123.721 10.6768C122.998 9.85645 122.1 9.44629 121.025 9.44629C119.951 9.44629 119.048 9.85645 118.315 10.6768C117.583 11.4971 117.217 12.6787 117.217 14.2217ZM130.488 6.44336H132.773V5.27148C132.773 3.96289 132.91 2.98633 133.184 2.3418C133.467 1.69727 133.979 1.1748 134.722 0.774414C135.474 0.364258 136.421 0.15918 137.563 0.15918C138.735 0.15918 139.883 0.334961 141.006 0.686523L140.449 3.55762C139.795 3.40137 139.165 3.32324 138.56 3.32324C137.964 3.32324 137.534 3.46484 137.271 3.74805C137.017 4.02148 136.89 4.55371 136.89 5.34473V6.44336H139.966V9.68066H136.89V22H132.773V9.68066H130.488V6.44336ZM157.764 6.44336V9.72461H154.951V15.9941C154.951 17.2637 154.976 18.0059 155.024 18.2207C155.083 18.4258 155.205 18.5967 155.391 18.7334C155.586 18.8701 155.82 18.9385 156.094 18.9385C156.475 18.9385 157.026 18.8066 157.749 18.543L158.101 21.7363C157.144 22.1465 156.06 22.3516 154.849 22.3516C154.106 22.3516 153.438 22.2295 152.842 21.9854C152.246 21.7314 151.807 21.4092 151.523 21.0186C151.25 20.6182 151.06 20.0811 150.952 19.4072C150.864 18.9287 150.82 17.9619 150.82 16.5068V9.72461H148.931V6.44336H150.82V3.35254L154.951 0.950195V6.44336H157.764ZM164.722 0.525391V8.4209C166.05 6.86816 167.637 6.0918 169.482 6.0918C170.43 6.0918 171.284 6.26758 172.046 6.61914C172.808 6.9707 173.379 7.41992 173.76 7.9668C174.15 8.51367 174.414 9.11914 174.551 9.7832C174.697 10.4473 174.771 11.4775 174.771 12.874V22H170.654V13.7822C170.654 12.1514 170.576 11.1162 170.42 10.6768C170.264 10.2373 169.985 9.89062 169.585 9.63672C169.194 9.37305 168.701 9.24121 168.105 9.24121C167.422 9.24121 166.812 9.40723 166.274 9.73926C165.737 10.0713 165.342 10.5742 165.088 11.248C164.844 11.9121 164.722 12.8984 164.722 14.207V22H160.605V0.525391H164.722ZM187.969 17.0488L192.07 17.7373C191.543 19.2412 190.708 20.3887 189.565 21.1797C188.433 21.9609 187.012 22.3516 185.303 22.3516C182.598 22.3516 180.596 21.4678 179.297 19.7002C178.271 18.2842 177.759 16.4971 177.759 14.3389C177.759 11.7607 178.433 9.74414 179.78 8.28906C181.128 6.82422 182.832 6.0918 184.893 6.0918C187.207 6.0918 189.033 6.8584 190.371 8.3916C191.709 9.91504 192.349 12.2539 192.29 15.4082H181.978C182.007 16.6289 182.339 17.5811 182.974 18.2646C183.608 18.9385 184.399 19.2754 185.347 19.2754C185.991 19.2754 186.533 19.0996 186.973 18.748C187.412 18.3965 187.744 17.8301 187.969 17.0488ZM188.203 12.8887C188.174 11.6973 187.866 10.7939 187.28 10.1787C186.694 9.55371 185.981 9.24121 185.142 9.24121C184.243 9.24121 183.501 9.56836 182.915 10.2227C182.329 10.877 182.041 11.7656 182.051 12.8887H188.203ZM7.0166 52V34.1582H0.644531V30.5254H17.71V34.1582H11.3525V52H7.0166ZM22.7637 52H18.6475V36.4434H22.4707V38.6553C23.125 37.6104 23.7109 36.9219 24.2285 36.5898C24.7559 36.2578 25.3516 36.0918 26.0156 36.0918C26.9531 36.0918 27.8564 36.3506 28.7256 36.8682L27.4512 40.457C26.7578 40.0078 26.1133 39.7832 25.5176 39.7832C24.9414 39.7832 24.4531 39.9443 24.0527 40.2666C23.6523 40.5791 23.335 41.1504 23.1006 41.9805C22.876 42.8105 22.7637 44.5488 22.7637 47.1953V52ZM39.5215 47.0488L43.623 47.7373C43.0957 49.2412 42.2607 50.3887 41.1182 51.1797C39.9854 51.9609 38.5645 52.3516 36.8555 52.3516C34.1504 52.3516 32.1484 51.4678 30.8496 49.7002C29.8242 48.2842 29.3115 46.4971 29.3115 44.3389C29.3115 41.7607 29.9854 39.7441 31.333 38.2891C32.6807 36.8242 34.3848 36.0918 36.4453 36.0918C38.7598 36.0918 40.5859 36.8584 41.9238 38.3916C43.2617 39.915 43.9014 42.2539 43.8428 45.4082H33.5303C33.5596 46.6289 33.8916 47.5811 34.5264 48.2646C35.1611 48.9385 35.9521 49.2754 36.8994 49.2754C37.5439 49.2754 38.0859 49.0996 38.5254 48.748C38.9648 48.3965 39.2969 47.8301 39.5215 47.0488ZM39.7559 42.8887C39.7266 41.6973 39.4189 40.7939 38.833 40.1787C38.2471 39.5537 37.5342 39.2412 36.6943 39.2412C35.7959 39.2412 35.0537 39.5684 34.4678 40.2227C33.8818 40.877 33.5938 41.7656 33.6035 42.8887H39.7559ZM50.2881 41.1895L46.5527 40.5156C46.9727 39.0117 47.6953 37.8984 48.7207 37.1758C49.7461 36.4531 51.2695 36.0918 53.291 36.0918C55.127 36.0918 56.4941 36.3115 57.3926 36.751C58.291 37.1807 58.9209 37.7324 59.2822 38.4062C59.6533 39.0703 59.8389 40.2959 59.8389 42.083L59.7949 46.8877C59.7949 48.2549 59.8584 49.2656 59.9854 49.9199C60.1221 50.5645 60.3711 51.2578 60.7324 52H56.6602C56.5527 51.7266 56.4209 51.3213 56.2646 50.7842C56.1963 50.54 56.1475 50.3789 56.1182 50.3008C55.415 50.9844 54.6631 51.4971 53.8623 51.8389C53.0615 52.1807 52.207 52.3516 51.2988 52.3516C49.6973 52.3516 48.4326 51.917 47.5049 51.0479C46.5869 50.1787 46.1279 49.0801 46.1279 47.752C46.1279 46.873 46.3379 46.0918 46.7578 45.4082C47.1777 44.7148 47.7637 44.1875 48.5156 43.8262C49.2773 43.4551 50.3711 43.1328 51.7969 42.8594C53.7207 42.498 55.0537 42.1611 55.7959 41.8486V41.4385C55.7959 40.6475 55.6006 40.0859 55.21 39.7539C54.8193 39.4121 54.082 39.2412 52.998 39.2412C52.2656 39.2412 51.6943 39.3877 51.2842 39.6807C50.874 39.9639 50.542 40.4668 50.2881 41.1895ZM55.7959 44.5293C55.2686 44.7051 54.4336 44.915 53.291 45.1592C52.1484 45.4033 51.4014 45.6426 51.0498 45.877C50.5127 46.2578 50.2441 46.7412 50.2441 47.3271C50.2441 47.9033 50.459 48.4014 50.8887 48.8213C51.3184 49.2412 51.8652 49.4512 52.5293 49.4512C53.2715 49.4512 53.9795 49.207 54.6533 48.7188C55.1514 48.3477 55.4785 47.8936 55.6348 47.3564C55.7422 47.0049 55.7959 46.3359 55.7959 45.3496V44.5293ZM62.4609 47.5615L66.5918 46.9316C66.7676 47.7324 67.124 48.3428 67.6611 48.7627C68.1982 49.1729 68.9502 49.3779 69.917 49.3779C70.9814 49.3779 71.7822 49.1826 72.3193 48.792C72.6807 48.5186 72.8613 48.1523 72.8613 47.6934C72.8613 47.3809 72.7637 47.1221 72.5684 46.917C72.3633 46.7217 71.9043 46.541 71.1914 46.375C67.8711 45.6426 65.7666 44.9736 64.8779 44.3682C63.6475 43.5283 63.0322 42.3613 63.0322 40.8672C63.0322 39.5195 63.5645 38.3867 64.6289 37.4688C65.6934 36.5508 67.3438 36.0918 69.5801 36.0918C71.709 36.0918 73.291 36.4385 74.3262 37.1318C75.3613 37.8252 76.0742 38.8506 76.4648 40.208L72.583 40.9258C72.417 40.3203 72.0996 39.8564 71.6309 39.5342C71.1719 39.2119 70.5127 39.0508 69.6533 39.0508C68.5693 39.0508 67.793 39.2021 67.3242 39.5049C67.0117 39.7197 66.8555 39.998 66.8555 40.3398C66.8555 40.6328 66.9922 40.8818 67.2656 41.0869C67.6367 41.3604 68.916 41.7461 71.1035 42.2441C73.3008 42.7422 74.834 43.3525 75.7031 44.0752C76.5625 44.8076 76.9922 45.8281 76.9922 47.1367C76.9922 48.5625 76.3965 49.7881 75.2051 50.8135C74.0137 51.8389 72.251 52.3516 69.917 52.3516C67.7979 52.3516 66.1182 51.9219 64.8779 51.0625C63.6475 50.2031 62.8418 49.0361 62.4609 47.5615ZM90.8496 52V49.6709C90.2832 50.501 89.5361 51.1553 88.6084 51.6338C87.6904 52.1123 86.7188 52.3516 85.6934 52.3516C84.6484 52.3516 83.7109 52.1221 82.8809 51.6631C82.0508 51.2041 81.4502 50.5596 81.0791 49.7295C80.708 48.8994 80.5225 47.752 80.5225 46.2871V36.4434H84.6387V43.5918C84.6387 45.7793 84.7119 47.1221 84.8584 47.6201C85.0146 48.1084 85.293 48.499 85.6934 48.792C86.0938 49.0752 86.6016 49.2168 87.2168 49.2168C87.9199 49.2168 88.5498 49.0264 89.1064 48.6455C89.6631 48.2549 90.0439 47.7764 90.249 47.21C90.4541 46.6338 90.5566 45.2324 90.5566 43.0059V36.4434H94.6729V52H90.8496ZM102.891 52H98.7744V36.4434H102.598V38.6553C103.252 37.6104 103.838 36.9219 104.355 36.5898C104.883 36.2578 105.479 36.0918 106.143 36.0918C107.08 36.0918 107.983 36.3506 108.853 36.8682L107.578 40.457C106.885 40.0078 106.24 39.7832 105.645 39.7832C105.068 39.7832 104.58 39.9443 104.18 40.2666C103.779 40.5791 103.462 41.1504 103.228 41.9805C103.003 42.8105 102.891 44.5488 102.891 47.1953V52ZM108.691 36.4434H113.071L116.792 47.4883L120.425 36.4434H124.688L119.194 51.4141L118.213 54.124C117.852 55.0322 117.505 55.7256 117.173 56.2041C116.851 56.6826 116.475 57.0684 116.045 57.3613C115.625 57.6641 115.103 57.8984 114.478 58.0645C113.862 58.2305 113.164 58.3135 112.383 58.3135C111.592 58.3135 110.815 58.2305 110.054 58.0645L109.688 54.8418C110.332 54.9688 110.913 55.0322 111.431 55.0322C112.388 55.0322 113.096 54.749 113.555 54.1826C114.014 53.626 114.365 52.9131 114.609 52.0439L108.691 36.4434Z" fill="black"/>
</svg>
